<svg xmlns="http://www.w3.org/2000/svg" class="_8a1SW0" viewBox="0 0 13 14" width="13"  height="14" ><g transform="matrix(1,0,0,1,-0.5,-0.219238)" fill="#ffffff"><path d="M1.586,4.414L1,5L1,9L2,10L4.649,10L9.375,13.781L10.44,13.269L5.189,8.018C5.127,8.006 5.064,8 5,8L3,8L3,6L3.171,6L1.586,4.414Z" fill="#ffffff"></path><path d="M9,6.172L9,3.081L7.283,4.455L5.86,3.032L9.375,0.219L11,1L11,8.172L9,6.172Z" fill="#ffffff"></path><path d="M0.646,0.647C0.842,0.451 1.158,0.451 1.354,0.647L13.354,12.647C13.549,12.842 13.549,13.159 13.354,13.354C13.158,13.549 12.842,13.549 12.646,13.354L0.646,1.354C0.451,1.159 0.451,0.842 0.646,0.647Z" fill="#ffffff"></path></g></svg>