<svg xmlns="http://www.w3.org/2000/svg" class="LQ8M0q" viewBox="0 0 19 14" width="19"  height="14" ><g transform="matrix(1,0,0,1,0,-0.219238)" fill="#ffffff"><path d="M10,13L8.375,13.781L3.649,10L1,10L0,9L0,5L1,4L3.649,4L8.375,0.219L10,1L10,13ZM8,10.92L8,3.081L4.625,5.781C4.447,5.923 4.227,6 4,6L2,6L2,8L4,8C4.227,8 4.447,8.077 4.625,8.219L8,10.92Z" fill="#ffffff"></path><path d="M14.293,12.293C17.216,9.37 17.216,4.63 14.293,1.707L15.707,0.293C19.411,3.997 19.411,10.003 15.707,13.707L14.293,12.293Z" fill="#ffffff"></path><path d="M11.722,9.722C13.225,8.219 13.225,5.782 11.722,4.279L13.136,2.864C15.42,5.149 15.42,8.852 13.136,11.136L11.722,9.722Z" fill="#ffffff"></path></g></svg>